<svg width="8" height="14" viewBox="0 0 8 14" fill="none" xmlns="http://www.w3.org/2000/svg">
<path fill-rule="evenodd" clip-rule="evenodd" d="M1.14512 13.3541C1.05108 13.2603 0.99823 13.1329 0.99823 13.0001C0.99823 12.8673 1.05108 12.7399 1.14512 12.6461L6.79212 7.00008L1.14512 1.35408C1.01865 1.22761 0.969259 1.04327 1.01555 0.87051C1.06184 0.697746 1.19679 0.562802 1.36955 0.51651C1.54231 0.470218 1.72665 0.519611 1.85312 0.646083L7.85312 6.64608C7.94717 6.73989 8.00002 6.86726 8.00002 7.00008C8.00002 7.13291 7.94717 7.26028 7.85312 7.35408L1.85312 13.3541C1.75932 13.4481 1.63195 13.501 1.49912 13.501C1.3663 13.501 1.23893 13.4481 1.14512 13.3541Z" fill="#052C65"/>
</svg>
